<svg width="24" height="24" viewBox="0 0 24 24" fill="none" xmlns="http://www.w3.org/2000/svg">
<path fill-rule="evenodd" clip-rule="evenodd" d="M15.4483 15L10.4819 19.9664C10.4938 19.8125 10.4998 19.6569 10.4998 19.5V15H15.4483ZM1.68179 22.4026C3.24108 23.9619 5.66001 24.1376 7.41307 22.9298C8.38388 22.1044 8.99979 20.8741 8.99979 19.5V15H4.49979C3.52186 15 2.61679 15.3119 1.87865 15.8418L1.68179 16.0386C-0.0755705 17.796 -0.0755701 20.6452 1.68179 22.4026ZM8.49226 24H22.4998C23.3282 24 23.9998 23.3284 23.9998 22.5V16.5C23.9998 15.6716 23.3282 15 22.4998 15H17.5697L9.10641 23.4632C8.91123 23.6584 8.70596 23.8373 8.49226 24ZM4.49979 21C5.32822 21 5.99979 20.3284 5.99979 19.5C5.99979 18.6716 5.32822 18 4.49979 18C3.67136 18 2.99979 18.6716 2.99979 19.5C2.99979 20.3284 3.67136 21 4.49979 21Z" fill="#5263FF"/>
<path fill-rule="evenodd" clip-rule="evenodd" d="M20.7737 9.67464L10.4819 19.9664C10.4938 19.8125 10.4998 19.6569 10.4998 19.5V7.2206L14.4097 3.31068C14.9955 2.72489 15.9452 2.72489 16.531 3.31068L20.7737 7.55332C21.3595 8.1391 21.3595 9.08885 20.7737 9.67464ZM1.68179 22.4026C3.24116 23.9619 5.66025 24.1376 7.41334 22.9296C8.384 22.1042 8.99979 20.874 8.99979 19.5V8.7206L1.68179 16.0386C-0.0755702 17.796 -0.0755703 20.6452 1.68179 22.4026ZM4.49979 21C5.32822 21 5.99979 20.3284 5.99979 19.5C5.99979 18.6716 5.32822 18 4.49979 18C3.67136 18 2.99979 18.6716 2.99979 19.5C2.99979 20.3284 3.67136 21 4.49979 21Z" fill="#7856FF"/>
<path fill-rule="evenodd" clip-rule="evenodd" d="M1.5 0C0.671573 0 0 0.671573 0 1.5V19.5C0 21.9853 2.01472 24 4.5 24C6.98528 24 9 21.9853 9 19.5V1.5C9 0.671573 8.32843 0 7.5 0H1.5ZM4.5 21C5.32843 21 6 20.3284 6 19.5C6 18.6716 5.32843 18 4.5 18C3.67157 18 3 18.6716 3 19.5C3 20.3284 3.67157 21 4.5 21Z" fill="#AD60FF"/>
</svg>
