<svg width="33" height="32" viewBox="0 0 33 32" fill="none" xmlns="http://www.w3.org/2000/svg">
<path d="M24.0971 0.00665814L19.7112 0C14.7838 0 11.5995 3.09104 11.5995 7.87524V11.5063H7.18964C6.80858 11.5063 6.5 11.7985 6.5 12.1591V17.42C6.5 17.7806 6.80893 18.0725 7.18964 18.0725H11.5995V31.3475C11.5995 31.708 11.9081 32 12.2891 32H18.0427C18.4238 32 18.7323 31.7077 18.7323 31.3475V18.0725H23.8885C24.2695 18.0725 24.5781 17.7806 24.5781 17.42L24.5802 12.1591C24.5802 11.986 24.5074 11.8202 24.3783 11.6977C24.2491 11.5752 24.0732 11.5063 23.8902 11.5063H18.7323V8.4282C18.7323 6.94876 19.105 6.19773 21.1419 6.19773L24.0964 6.19673C24.4771 6.19673 24.7857 5.90443 24.7857 5.54423V0.659155C24.7857 0.299283 24.4775 0.00732395 24.0971 0.00665814Z" fill="#8FA7CA"/>
</svg>
