<svg width="32" height="32" viewBox="0 0 32 32" fill="none" xmlns="http://www.w3.org/2000/svg">
<path fill-rule="evenodd" clip-rule="evenodd" d="M19.7355 19.25L14.3558 24.6297C14.3686 24.4632 14.3751 24.2948 14.3751 24.125V19.25H19.7355ZM4.8219 27.2694C6.51193 28.9594 9.13411 29.1492 11.0335 27.8387C12.0839 26.9445 12.7501 25.6125 12.7501 24.125V19.25H7.87512C6.81492 19.25 5.83377 19.5884 5.03381 20.1632L4.8219 20.3751C2.91809 22.2789 2.91809 25.3656 4.8219 27.2694ZM12.1998 29H27.3751C28.2726 29 29.0001 28.2725 29.0001 27.375V20.875C29.0001 19.9775 28.2726 19.25 27.3751 19.25H22.0336L12.8652 28.4184C12.6537 28.6299 12.4313 28.8237 12.1998 29ZM7.87512 25.75C8.77259 25.75 9.50012 25.0225 9.50012 24.125C9.50012 23.2275 8.77259 22.5 7.87512 22.5C6.97766 22.5 6.25013 23.2275 6.25013 24.125C6.25013 25.0225 6.97766 25.75 7.87512 25.75Z" fill="#5263FF"/>
<path fill-rule="evenodd" clip-rule="evenodd" d="M25.5047 13.4807L14.3558 24.6296C14.3686 24.4631 14.3751 24.2947 14.3751 24.1249V10.8218L18.6105 6.58642C19.2451 5.95182 20.274 5.95182 20.9086 6.58642L25.5047 11.1826C26.1393 11.8172 26.1393 12.8461 25.5047 13.4807ZM4.8219 27.2693C6.51184 28.9592 9.13383 29.149 11.0332 27.8388C12.0837 26.9446 12.7501 25.6125 12.7501 24.1249V12.4468L4.8219 20.375C2.91809 22.2788 2.91809 25.3655 4.8219 27.2693ZM7.87513 25.7498C8.77259 25.7498 9.50012 25.0223 9.50012 24.1249C9.50012 23.2274 8.77259 22.4999 7.87513 22.4999C6.97766 22.4999 6.25013 23.2274 6.25013 24.1249C6.25013 25.0223 6.97766 25.7498 7.87513 25.7498Z" fill="#7856FF"/>
<path fill-rule="evenodd" clip-rule="evenodd" d="M4.625 3C3.72754 3 3 3.72754 3 4.625V24.125C3 26.8174 5.18261 29 7.87499 29C10.5674 29 12.75 26.8173 12.75 24.125V4.625C12.75 3.72754 12.0225 3 11.125 3H4.625ZM7.87499 25.75C8.77245 25.75 9.49999 25.0224 9.49999 24.125C9.49999 23.2275 8.77245 22.5 7.87499 22.5C6.97753 22.5 6.25 23.2275 6.25 24.125C6.25 25.0224 6.97753 25.75 7.87499 25.75Z" fill="#AD60FF"/>
</svg>
