<svg width="64" height="64" viewBox="0 0 64 64" fill="none" xmlns="http://www.w3.org/2000/svg">
<path d="M58.9998 16H60.9998C62.8478 16 64.3188 14.307 63.9398 12.395C63.6568 10.972 62.3198 10 60.8688 10H50.4998C49.6718 10 48.9998 9.328 48.9998 8.5C48.9998 7.672 49.6718 7 50.4998 7H56.4118C57.5508 7 58.6138 6.279 58.9088 5.179C59.3548 3.516 58.0958 2 56.4998 2H33.9998H32.4998H8.49981C6.57481 2 4.99981 3.575 4.99981 5.5C4.99981 7.425 6.57481 9 8.49981 9H9.99981C11.1048 9 11.9998 9.895 11.9998 11C11.9998 12.105 11.1048 13 9.99981 13H4.61481C2.94481 13 1.41981 14.122 1.07781 15.757C0.607814 18.002 2.33181 20 4.49981 20H11.9998L8.99981 32H3.61481C1.94481 32 0.419814 33.122 0.0778141 34.757C-0.392186 37.002 1.33181 39 3.49981 39H3.99981C5.10481 39 5.99981 39.895 5.99981 41C5.99981 42.105 5.10481 43 3.99981 43H3.49981C1.33181 43 -0.392186 44.998 0.0778141 47.243C0.419814 48.878 1.94481 50 3.61481 50H8.99981C10.1048 50 10.9998 50.895 10.9998 52C10.9998 53.105 10.1048 54 8.99981 54H7.61481C5.94481 54 4.41981 55.122 4.07781 56.757C3.60781 59.002 5.33181 61 7.49981 61H30.9938H32.4998H33.9998H55.9998C57.6568 61 58.9998 59.657 58.9998 58C58.9998 56.343 57.6568 55 55.9998 55H55.4998C54.1188 55 52.9998 53.881 52.9998 52.5C52.9998 51.119 54.1188 50 55.4998 50H59.9998C61.6568 50 62.9998 48.657 62.9998 47C62.9998 45.343 61.6568 44 59.9998 44H51.6228C53.7638 40.506 54.9998 36.398 54.9998 32C54.9998 29.559 54.6158 27.208 53.9118 25H60.4128C61.5518 25 62.6148 24.279 62.9098 23.179C63.3548 21.516 62.0958 20 60.4998 20H58.9998C57.8948 20 56.9998 19.105 56.9998 18C56.9998 16.895 57.8948 16 58.9998 16Z" fill="#E4E4F9"/>
<path d="M32 6C17.663 6 6 17.664 6 32C6 46.336 17.663 58 32 58C46.337 58 58 46.336 58 32C58 17.664 46.337 6 32 6ZM32 13C35.902 13 39.614 14.167 42.804 16.388L16.388 42.804C14.168 39.614 13 35.902 13 32C13 21.523 21.523 13 32 13ZM32 51C28.098 51 24.386 49.833 21.196 47.612L47.612 21.196C49.832 24.386 51 28.098 51 32C51 42.477 42.477 51 32 51Z" fill="url(#paint0_linear)"/>
<defs>
<linearGradient id="paint0_linear" x1="6" y1="58" x2="58" y2="6" gradientUnits="userSpaceOnUse">
<stop stop-color="#8482FB"/>
<stop offset="0.541667" stop-color="#D385F9"/>
<stop offset="1" stop-color="#F98BCC"/>
</linearGradient>
</defs>
</svg>
