<svg width="36" height="36" viewBox="0 0 36 36" fill="none" xmlns="http://www.w3.org/2000/svg">
<path d="M27.8223 0.346265C27.0002 0.340857 26.1943 0.632923 25.5723 1.25492L24.1877 2.6828L33.3175 11.8559L34.7021 10.428C35.9515 9.1786 35.9623 7.15035 34.7021 5.88473L30.1155 1.29819C29.4827 0.665376 28.6444 0.351673 27.8223 0.346265ZM22.63 3.93761L20.4665 6.01453L29.9857 15.5338L32.1925 13.5001L22.63 3.93761ZM19.0819 7.52896L4.11073 22.3703C3.76458 22.5488 3.51578 22.8625 3.41842 23.2357L0.216499 34.0963C0.0704655 34.5722 0.200273 35.0969 0.551836 35.4484C0.903398 35.8 1.42804 35.9298 1.904 35.7838L12.7646 32.5818C13.2676 32.5061 13.684 32.1546 13.8463 31.6732L28.6011 17.0482L26.5675 15.0145L11.4232 30.202L5.32227 31.9761L4.02419 30.678L5.88477 24.3174L20.8992 9.34627L19.0819 7.52896ZM22.3703 10.8607L7.18284 26.0915L9.38958 26.5674L9.69246 28.6011L24.9232 13.4136L22.3703 10.8607Z" fill="#FF73C6"/>
</svg>
