<svg width="36" height="36" viewBox="0 0 36 36" fill="none" xmlns="http://www.w3.org/2000/svg">
<path d="M9.69227 0C6.64179 0 4.15381 2.48798 4.15381 5.53846V30.4615C4.15381 33.512 6.64179 36 9.69227 36H26.3077C29.3581 36 31.8461 33.512 31.8461 30.4615V11.0769C31.8461 9.60577 30.4994 8.21034 28.0817 5.84135C27.7464 5.51142 27.384 5.14363 27.0432 4.80288C26.7025 4.46214 26.3347 4.14303 26.0048 3.80769C23.6358 1.39002 22.2403 0 20.7692 0H9.69227ZM9.69227 2.76923H19.774C20.7746 3.02344 20.7692 4.22416 20.7692 5.45192V9.69231C20.7692 10.4549 21.3912 11.0769 22.1538 11.0769H26.3077C27.6869 11.0769 29.0769 11.0823 29.0769 12.4615V30.4615C29.0769 31.9922 27.8383 33.2308 26.3077 33.2308H9.69227C8.16162 33.2308 6.92304 31.9922 6.92304 30.4615V5.53846C6.92304 4.00781 8.16162 2.76923 9.69227 2.76923ZM13.8461 12.4615C12.3155 12.4615 11.0769 13.7001 11.0769 15.2308C11.0769 16.7614 12.3155 18 13.8461 18C15.3768 18 16.6153 16.7614 16.6153 15.2308C16.6153 13.7001 15.3768 12.4615 13.8461 12.4615ZM22.1105 16.8317C20.4663 16.8317 19.8876 23.625 17.6105 23.625C15.923 23.625 15.2686 20.8558 13.8461 20.8558C12.4236 20.8558 9.86535 26.6538 9.86535 26.6538C9.34071 27.238 10.125 27.6923 10.7307 27.6923H25.3557C25.8479 27.6923 26.4807 27.0649 26.0913 26.2212C26.0913 26.2212 23.7548 16.8317 22.1105 16.8317Z" fill="#CA5AFF"/>
</svg>
