<svg width="33" height="32" viewBox="0 0 33 32" fill="none" xmlns="http://www.w3.org/2000/svg">
<path d="M16.5 2C8.77063 2 2.5 8.27063 2.5 16C2.5 23.7294 8.77063 30 16.5 30C24.2294 30 30.5 23.7362 30.5 16C30.5 8.26375 24.2294 2 16.5 2ZM25.3888 8.45312C27.0086 10.3574 27.9728 12.7323 28.1388 15.2269C25.6156 15.0956 22.5969 15.0956 20.1763 15.3219C19.87 14.5487 19.5563 13.7906 19.2138 13.0612C22.005 11.8512 24.1562 10.2612 25.3888 8.45312ZM16.5 4.33313C19.2193 4.32845 21.8541 5.27822 23.945 7.01687C22.6763 8.62062 20.6856 10.0169 18.2062 11.0706C16.85 8.5625 15.2894 6.40438 13.625 4.705C14.5642 4.46253 15.53 4.33762 16.5 4.33313ZM11.2206 5.60938C12.905 7.28625 14.4875 9.42188 15.8731 11.9219C13.2406 12.7262 10.2219 13.1875 7 13.1875C6.3875 13.1875 5.79 13.1656 5.19938 13.1287C5.61021 11.5191 6.35986 10.0157 7.39822 8.71902C8.43659 7.42231 9.73975 6.36214 11.2206 5.60938ZM4.855 15.4456C5.51875 15.475 6.18937 15.4894 6.8675 15.4825C10.5425 15.4388 13.9625 14.8625 16.9013 13.92C17.1783 14.4963 17.4408 15.0869 17.6887 15.6919C17.3337 15.7696 16.985 15.8741 16.6456 16.0044C12.6281 17.6919 9.46375 20.4113 7.75 23.7C5.87085 21.5752 4.83343 18.8366 4.83313 16C4.83313 15.8125 4.84063 15.6281 4.855 15.4456ZM16.5 27.6669C13.908 27.67 11.3897 26.8048 9.34688 25.2094C10.9 22.1325 13.6706 19.5844 17.1637 18.005C17.4919 17.8519 17.9294 17.7281 18.4325 17.6187C18.8492 18.7704 19.221 19.9662 19.5481 21.2062C20.0366 23.0778 20.3964 24.9806 20.625 26.9013C19.3082 27.4058 17.9102 27.6653 16.5 27.6669ZM22.8075 25.8075C22.5794 23.8669 22.2162 21.9445 21.7206 20.0544C21.4706 19.1062 21.1887 18.1875 20.8825 17.2906C23.1719 17.1031 25.9137 17.13 28.0938 17.2906C27.9016 19.0141 27.3274 20.6729 26.4129 22.1463C25.4984 23.6197 24.2667 24.8705 22.8075 25.8075Z" fill="#8FA7CA"/>
</svg>
