<svg width="33" height="32" viewBox="0 0 33 32" fill="none" xmlns="http://www.w3.org/2000/svg">
<g clip-path="url(#clip0)">
<path d="M32.5 5.24712C31.31 5.7978 30.042 6.16281 28.72 6.34004C30.08 5.48343 31.118 4.13732 31.606 2.51481C30.338 3.31235 28.938 3.87569 27.446 4.19007C26.242 2.83763 24.526 2 22.654 2C19.022 2 16.098 5.10998 16.098 8.92255C16.098 9.47112 16.142 9.99859 16.25 10.5007C10.796 10.2201 5.97 7.46251 2.728 3.26171C2.162 4.29767 1.83 5.48343 1.83 6.75991C1.83 9.15675 3 11.2814 4.744 12.5115C3.69 12.4904 2.656 12.1676 1.78 11.6591C1.78 11.6802 1.78 11.7076 1.78 11.735C1.78 15.0982 4.054 17.8917 7.036 18.5352C6.502 18.6892 5.92 18.7631 5.316 18.7631C4.896 18.7631 4.472 18.7378 4.074 18.6449C4.924 21.3857 7.336 23.4006 10.204 23.466C7.972 25.308 5.138 26.4178 2.07 26.4178C1.532 26.4178 1.016 26.3924 0.5 26.3228C3.406 28.2998 6.85 29.4286 10.564 29.4286C22.636 29.4286 29.236 18.8791 29.236 9.73486C29.236 9.42892 29.226 9.13354 29.212 8.84026C30.514 7.86549 31.608 6.64809 32.5 5.24712Z" fill="#8FA7CA"/>
</g>
<defs>
<clipPath id="clip0">
<rect width="32" height="32" fill="white" transform="translate(0.5)"/>
</clipPath>
</defs>
</svg>
