<svg width="256" height="256" viewBox="0 0 256 256" fill="none" xmlns="http://www.w3.org/2000/svg">
<path fill-rule="evenodd" clip-rule="evenodd" d="M157.883 154L114.845 197.037C114.948 195.705 115 194.358 115 193V154H157.883ZM38.5732 218.155C52.0939 231.676 73.0721 233.194 88.2671 222.709C96.6699 215.555 102 204.9 102 193V154H63.0001C54.5172 154 46.6669 156.708 40.2666 161.307L38.5732 163.001C23.3428 178.231 23.3428 202.925 38.5732 218.155ZM97.5965 232H219C226.18 232 232 226.18 232 219V167C232 159.82 226.18 154 219 154H176.267L102.92 227.347C101.228 229.039 99.4488 230.59 97.5965 232ZM62.9999 206C70.1795 206 75.9998 200.18 75.9998 193C75.9998 185.82 70.1795 180 62.9999 180C55.8202 180 49.9999 185.82 49.9999 193C49.9999 200.18 55.8202 206 62.9999 206Z" fill="#5263FF"/>
<path fill-rule="evenodd" clip-rule="evenodd" d="M204.036 107.846L114.845 197.036C114.948 195.704 115 194.357 115 192.999V86.5734L148.882 52.6914C153.959 47.6146 162.19 47.6146 167.266 52.6914L204.036 89.4609C209.113 94.5377 209.113 102.769 204.036 107.846ZM38.5732 218.154C52.0938 231.675 73.0721 233.193 88.2671 222.708C96.6699 215.554 102 204.899 102 192.999V99.5734L38.5732 163C23.3428 178.23 23.3428 202.924 38.5732 218.154ZM62.9999 205.999C70.1796 205.999 75.9998 200.179 75.9998 192.999C75.9998 185.819 70.1796 179.999 62.9999 179.999C55.8202 179.999 49.9999 185.819 49.9999 192.999C49.9999 200.179 55.8202 205.999 62.9999 205.999Z" fill="#7856FF"/>
<path fill-rule="evenodd" clip-rule="evenodd" d="M37 24C29.8203 24 24 29.8203 24 37V193C24 214.539 41.4609 232 62.9999 232C84.539 232 102 214.539 102 193V37C102 29.8203 96.1796 24 88.9999 24H37ZM63 206C70.1797 206 76 200.18 76 193C76 185.82 70.1797 180 63 180C55.8203 180 50 185.82 50 193C50 200.18 55.8203 206 63 206Z" fill="#AD60FF"/>
</svg>
